<svg xmlns="http://www.w3.org/2000/svg" viewBox="0 0 512 512"><defs><style>.cls-1{fill:#fff;}.cls-2{fill:none;stroke:#fff;stroke-linecap:round;stroke-miterlimit:10;stroke-width:7.75px;}</style></defs><g id="Layer_3" data-name="Layer 3"><circle class="cls-1" cx="96.64" cy="414.13" r="33.7"/><path class="cls-1" d="M176.17,356.15H141l-15.36-25.07h-58L52.26,356.15H17.1A18.1,18.1,0,0,0-1,374.25V455.7a18.1,18.1,0,0,0,18.1,18.1H176.17a18.1,18.1,0,0,0,18.1-18.1V374.25A18.1,18.1,0,0,0,176.17,356.15ZM96.64,455.66a41.53,41.53,0,1,1,41.52-41.53A41.53,41.53,0,0,1,96.64,455.66Zm75.49-76.83a6.23,6.23,0,1,1,6.22-6.23A6.23,6.23,0,0,1,172.13,378.83Z"/><path class="cls-1" d="M508.17,149.67l-78.84,1.89L387.58,94.32l25.55-74.91a2.91,2.91,0,0,1,5.09-.78l92.22,126.44A2.89,2.89,0,0,1,508.17,149.67Z"/><path class="cls-1" d="M427.75,152.26l-37.3,27.21a35.57,35.57,0,0,1-48.36-7.39c-11.59-15.22-8.64-37.61,6.88-49.48l37.3-27.21Z"/><path class="cls-1" d="M443.37,50.48c18.35-10.68,40.08-8.14,50.7,5.69,10.93,14.25,7,36.53-9.22,51.18Z"/><path class="cls-1" d="M414.6,164.3q6.81,24.8,13.63,49.59c3.19,10-2.15,20.24-10.79,22.19-8.18,1.84-17.11-4.28-19.31-13.93L388.47,183"/><path class="cls-1" d="M210.41,35.09C207,22.6,194,4.94,175,3.84c-14.37-.83-28.65,8-37.38,22.36-8.73-14.41-23-23.19-37.37-22.36-19.07,1.1-32,18.76-35.46,31.25-7.57,27.42,20.71,66,72.83,92.42C189.7,101.06,218,62.51,210.41,35.09Z"/><circle class="cls-1" cx="270.9" cy="66.66" r="9.42"/><circle class="cls-1" cx="291.67" cy="65.65" r="6.84"/><circle class="cls-1" cx="250.68" cy="65.65" r="6.84"/><path class="cls-1" d="M275.25,236.41v55.53h-8.7V236.41Z"/><path class="cls-1" d="M291.47,291.94H250.33v-8.71h41.14Z"/><path class="cls-1" d="M273.78,245.11H254.29v-8.7h19.49Z"/><circle class="cls-1" cx="268.72" cy="225.13" r="6.53"/><path class="cls-1" d="M338.85,122.71l48-35.27q-.06-7.69-.13-15.39a11.54,11.54,0,0,0,0-5c-1.51-6.83-9.06-9.54-9.78-9.79H303.66V68.35a9.37,9.37,0,0,1-9.37,9.37H247.51a9.38,9.38,0,0,1-9.37-9.37V57.23H221.73A126.82,126.82,0,0,1,198.15,98.1a127.13,127.13,0,0,1-43.08,32.41l0,218,21.7-.14a25.82,25.82,0,0,1,18.42,8,25.5,25.5,0,0,1,6.6,16.71q-.08,41-.14,81.91c.07,1.32.43,11.24-7.52,18.46a23.75,23.75,0,0,1-17.29,5.92L155,480a8.54,8.54,0,0,0,.06,2.23c1,6.21,8.56,9.31,9.79,9.78H377a8,8,0,0,0,4.33-.59c3.8-1.72,6-6.75,5.4-12.58q.38-143.85.76-287.69c-19.77,7.79-42.19.46-53.06-16.82C324.44,158.48,326.14,137.37,338.85,122.71ZM337.43,259a74,74,0,0,1-2.36,17.59,56.9,56.9,0,0,1-12.89,22.29A27,27,0,0,0,326,311.91c6.26,10.3,17.48,12.5,19.45,12.85-9.17,7.24-21,8.31-29.34,3-6.79-4.36-9-11.53-9.56-13.85a63.94,63.94,0,0,1-20.64,9.95s-14.46,4-29.26,1c-24.07-4.75-52.74-31-52.41-65.89.34-34.51,28.93-66.59,66.59-66.59A66.59,66.59,0,0,1,337.43,259Z"/><path class="cls-2" d="M143.29,344.88q.26-104.62.5-209.25"/><path class="cls-2" d="M398.36,240.76V482.4a22.72,22.72,0,0,1-18.71,22.35H162.13a22.73,22.73,0,0,1-18.69-22.35"/><path class="cls-2" d="M224.32,44.3l155.54-.16A25.48,25.48,0,0,1,390,49.25,24.84,24.84,0,0,1,395,55"/></g></svg>