<svg xmlns="http://www.w3.org/2000/svg" viewBox="0 0 512 512"><defs><style>.cls-1{fill:#fff;}</style></defs><g id="BUREAU"><path class="cls-1" d="M449.44,256.09,289.87,415.44l-149.5-65.09L26.72,470,119.5,299l140.71,43.48q64.47-67.23,129-134.45l-60.55-9L512,113.91,470.42,312.07Q459.94,284.08,449.44,256.09Z"/><path class="cls-1" d="M95.43,150.56C50,159.4,13.85,192.62,3.2,235.29c-12.69,50.9,13.14,106.56,63.43,132.12l27-52.66a141.37,141.37,0,0,1-25.67-76C66.37,192.71,88.24,160.34,95.43,150.56Z"/><path class="cls-1" d="M358.33,171.8a162,162,0,0,0-48.5-51.45c-9.46-6.35-66.67-44.77-134.41-20.83-5.91,2.09-69,25.63-89.53,93.74C69.07,249,92.69,295,97.52,304l14.3-23.83,142.35,47.53L364.44,214.93,302.6,202.29Q330.47,187.05,358.33,171.8ZM253.39,261.13q-3.16,6.4-12.21,10.73a42.77,42.77,0,0,1-9.75,3.23v7.61H201v-9.91c-1.18-.49-2.33-1-3.43-1.6q-9.33-5-12.21-12.71t-2.89-21.93v-8.26H213v15.37q0,7.09,1.29,9.12t4.57,2a5.35,5.35,0,0,0,4.87-2.57q1.6-2.58,1.6-7.65,0-11.16-3-14.59t-15.37-11.47q-12.26-8.1-16.23-11.78a27.49,27.49,0,0,1-6.59-10.14q-2.61-6.47-2.61-16.54,0-14.5,3.7-21.22t12-10.49a37.68,37.68,0,0,1,3.86-1.49V136.74h30.39v9.4a41.55,41.55,0,0,1,7.52,2.57q9,4.14,11.94,10.42t2.93,21.33v5H223.31v-9.36c0-4.36-.39-7.15-1.17-8.34a4.3,4.3,0,0,0-3.9-1.8,5,5,0,0,0-4.48,2.42c-1,1.62-1.53,4.06-1.53,7.34q0,6.33,1.71,9.52t9.29,7.73q21.93,13,27.62,21.36t5.7,26.91Q256.55,254.73,253.39,261.13Z"/></g></svg>