<svg xmlns="http://www.w3.org/2000/svg" viewBox="0 0 512 512"><defs><style>.cls-1{fill:#fff;}</style></defs><g id="HRD"><path class="cls-1" d="M257.86,75l-238,138.66v61.5L187.53,177l70.33-40.86q33,19.52,66,39,84.45,49.76,169.17,99V212.69Z"/><path class="cls-1" d="M257.86,0C251.3,8.51,178.38,100.27,80.18,87.78A155.87,155.87,0,0,1,19,66l.63,134.62,167.7-98.18L257.86,62l65.79,38.52,169.17,99,.42-133.44c-18,8.52-47.24,19.11-83.61,18C320.47,81.51,266.09,11,257.86,0Z"/><path class="cls-1" d="M257.86,150,20.56,284.81c0,15,1.63,96.51,70.15,161.69C101.73,457,161.77,512,256.43,512c16.81,0,92.78-1.75,158-58.54,75.38-65.67,77.76-153.92,77.91-168.65ZM99.26,430.92a222.57,222.57,0,0,1-33.89-42.35A101.81,101.81,0,0,1,127,348.08h0c-26.55-.3-48-20.45-48-45.26,0-25,21.76-45.26,48.59-45.26s48.6,20.26,48.6,45.26c0,20.32-14.37,37.52-34.17,43.24a106.11,106.11,0,0,1,59.55,14.53,291,291,0,0,0-22.12,51.79A287.6,287.6,0,0,0,167,476.66,231.56,231.56,0,0,1,99.26,430.92Zm161.5,62.48A233,233,0,0,1,178,480.18c3.71-91.19,46.81-152.16,78.47-152-26.84,0-48.59-20.26-48.59-45.26s21.75-45.27,48.59-45.27S305,258,305,283s-21.75,45.26-48.59,45.26c31.58.21,73.6,61.41,76.49,152A232.32,232.32,0,0,1,260.76,493.4Zm151-65.22A231.66,231.66,0,0,1,344,473.92a286.92,286.92,0,0,0-12.5-64.3,291.68,291.68,0,0,0-22.12-51.79,106.12,106.12,0,0,1,59.54-14.52c-19.79-5.73-34.16-22.92-34.16-43.24,0-25,21.76-45.27,48.6-45.27s48.59,20.27,48.59,45.27c0,24.81-21.42,44.95-48,45.26H384a101.9,101.9,0,0,1,61.62,40.48A222.59,222.59,0,0,1,411.72,428.18Z"/><path class="cls-1" d="M158.37,474.92c-8.88-9.77-27.64-33.4-25.9-64a71.08,71.08,0,0,1,1.95-13l12.62.67-30.27-29.85-33.5,26.45,10.36.55a164.52,164.52,0,0,0,17.25,41.68C128.18,467,151,485,165.34,494.44Q161.86,484.68,158.37,474.92Z"/><path class="cls-1" d="M353.59,474.92c8.88-9.77,27.64-33.4,25.9-64a70.21,70.21,0,0,0-2-13l-12.61.67,30.27-29.85,33.5,26.45-10.36.55a111.2,111.2,0,0,1-11.61,43c-17.64,35-49,50.73-60.11,55.67Q350.11,484.68,353.59,474.92Z"/><path class="cls-1" d="M182.06,488c11.47-7.74,34.13-25.4,48.13-56.08a128.56,128.56,0,0,0,11.3-44.78H205l49.14-43.08,51.59,43.08H267.26A108.3,108.3,0,0,0,276,430.88c14.63,34,42.76,50.79,53,56.3a305.19,305.19,0,0,1-147,.85Z"/></g></svg>