<svg xmlns="http://www.w3.org/2000/svg" viewBox="0 0 512 512"><defs><style>.cls-1,.cls-3,.cls-5{fill:none;stroke:#fff;}.cls-1,.cls-3{stroke-linecap:round;stroke-linejoin:round;}.cls-1{stroke-width:5.83px;}.cls-2{fill:#fcfcfc;}.cls-3{stroke-width:1.74px;}.cls-4{fill:#fff;}.cls-5{stroke-miterlimit:10;stroke-width:0.89px;}</style></defs><g id="Layer_2" data-name="Layer 2"><g id="PUZEL_LAMPU" data-name="PUZEL LAMPU"><path class="cls-1" d="M94.42,92.49l16.07,16.08,31-31"/><path class="cls-2" d="M232,69.66V1.11H0v232H68.63a47.45,47.45,0,0,0,94.89,0H232V164.55a47.45,47.45,0,0,1,0-94.89ZM115.71,50a40,40,0,0,1,33,63.08A39.83,39.83,0,0,0,141.51,136v.09h-51V136a40.61,40.61,0,0,0-7.38-23.14A39.7,39.7,0,0,1,76,90,40.15,40.15,0,0,1,115.71,50ZM98.89,166.28a8.4,8.4,0,0,1-8.4-8.4v-14h51v14a8.4,8.4,0,0,1-8.4,8.4Zm33.26.07v3.43a14.43,14.43,0,0,1-14.43,14.43h-3.3A14.43,14.43,0,0,1,100,169.78v-3.43Zm12.92-22.57h-58a3.81,3.81,0,0,1,0-7.62h58a3.81,3.81,0,0,1,0,7.62Z"/></g><g id="PUZEL_BUKU" data-name="PUZEL BUKU"><line class="cls-3" x1="348.31" y1="79.29" x2="389.81" y2="89.17"/><line class="cls-3" x1="348.31" y1="144.07" x2="389.81" y2="153.95"/><path class="cls-3" d="M349,95.89l40.42,8.92"/><path class="cls-3" d="M349,112.37l40.84,9.48"/><path class="cls-3" d="M349,127.93l40.84,9.1"/><line class="cls-3" x1="439.93" y1="79.29" x2="398.42" y2="89.17"/><line class="cls-3" x1="439.93" y1="144.07" x2="398.42" y2="153.95"/><path class="cls-3" d="M439.27,95.89l-40.43,8.92"/><path class="cls-3" d="M439.27,112.37l-40.85,9.48"/><path class="cls-3" d="M439.27,127.93,398.42,137"/><path class="cls-4" d="M279.45,1.11V69.77a47.45,47.45,0,1,0,0,94.89v68.45h62.92a47.45,47.45,0,1,1,94.89,0h74.19V1.11ZM457.79,151.88l-63.67,14.38-63.67-14.62V69.22l10,2.35.53.11,0-11.26,53.14,12.46,53.14-12.07V72l.11,0,10.42-2.78Z"/></g><g id="PUZEL_PS" data-name="PUZEL PS"><path class="cls-4" d="M232,343.36V279.55H163.52a47.45,47.45,0,1,1-94.89,0H0v232H232v-73.3a47.45,47.45,0,1,0,0-94.89ZM186.49,431c-.82,3-3.38,12.14-10.1,14.76-6,2.35-12.52-1.68-22.33-7.77-12.28-7.62-14.62-12.77-24.49-16a40.66,40.66,0,0,0-13.56-2,40.68,40.68,0,0,0-13.57,2c-9.86,3.26-12.21,8.41-24.49,16-9.8,6.09-16.31,10.12-22.33,7.77-6.72-2.62-9.27-11.8-10.1-14.76-1.62-5.82-1.1-10.66-.58-14.75,2.07-16.13,3-24.21,6.6-33.4,5.25-13.28,10.34-26.18,21.36-29.25,7-1.94,16.38,0,17.8.32,4.49.94,6.85,2.14,12.82,3.3A75.29,75.29,0,0,0,116,358.53h0a68.63,68.63,0,0,0,12.45-1.36c4.56-1,5.56-1.8,12.81-3.3l.52-.11a52.66,52.66,0,0,1,17.28-.21c10.66,2.11,18,20.63,21.36,29.25,3.63,9.21,4.62,17.27,6.6,33.4C187.62,420.66,188.06,425.32,186.49,431Z"/><path class="cls-4" d="M99.34,382.63H91.42V374.7a1.5,1.5,0,0,0-1.5-1.5H85a1.5,1.5,0,0,0-1.5,1.5v7.93H75.56a1.5,1.5,0,0,0-1.5,1.5v4.93a1.5,1.5,0,0,0,1.5,1.5h7.92v7.92A1.51,1.51,0,0,0,85,400h4.94a1.51,1.51,0,0,0,1.5-1.51v-7.92h7.92a1.5,1.5,0,0,0,1.5-1.5v-4.93A1.5,1.5,0,0,0,99.34,382.63Z"/><path class="cls-4" d="M128.73,380.37a6.23,6.23,0,1,0,6.23,6.22A6.22,6.22,0,0,0,128.73,380.37Zm0,10.37a4.2,4.2,0,1,1,4.2-4.2A4.2,4.2,0,0,1,128.73,390.74Z"/><path class="cls-4" d="M141.79,367.3a6.23,6.23,0,1,0,6.23,6.23A6.23,6.23,0,0,0,141.79,367.3Zm0,10.38a4.21,4.21,0,1,1,4.2-4.2A4.2,4.2,0,0,1,141.79,377.68Z"/><path class="cls-4" d="M141.79,393.32a6.23,6.23,0,1,0,6.23,6.22A6.23,6.23,0,0,0,141.79,393.32Zm0,10.37a4.2,4.2,0,1,1,4.2-4.2A4.2,4.2,0,0,1,141.79,403.69Z"/><path class="cls-4" d="M154.74,380.31a6.23,6.23,0,1,0,6.23,6.23A6.22,6.22,0,0,0,154.74,380.31Zm0,10.38a4.21,4.21,0,1,1,4.21-4.21A4.21,4.21,0,0,1,154.74,390.69Z"/></g><path class="cls-4" d="M438,280a48,48,0,0,0-96,0l-63.21-.37v63.11a47.64,47.64,0,1,1,0,95.27v74.54H511.72V279.63ZM395.35,438.7a13.21,13.21,0,0,1-25.73,0c-.67.11-7.27,1.14-12.27-3.74-5.66-5.53-3.82-13.3-3.74-13.62a11.28,11.28,0,0,1-11.07-17.5c-.41-.29-5.36-3.93-5.09-9.87a11.19,11.19,0,0,1,2.69-6.66c-.39-.49-4.36-5.55-2.54-11.6a12.24,12.24,0,0,1,4.34-6.13,12.78,12.78,0,0,1,1.49-13.91c3.9-4.57,9.73-4.31,10.4-4.27a14.25,14.25,0,0,1,19.08-17.28A11.77,11.77,0,0,1,395.35,333ZM462.49,394c.27,5.94-4.68,9.58-5.08,9.87a11.28,11.28,0,0,1-11.08,17.5c.09.32,1.92,8.09-3.74,13.62-5,4.88-11.6,3.85-12.26,3.74a13.22,13.22,0,0,1-25.74,0V333A11.77,11.77,0,0,1,427,334.12a14.25,14.25,0,0,1,19.08,17.28c.67,0,6.51-.3,10.4,4.27A12.78,12.78,0,0,1,458,369.58a12.24,12.24,0,0,1,4.34,6.13c1.82,6.05-2.14,11.11-2.54,11.6A11.19,11.19,0,0,1,462.49,394Z"/><path class="cls-5" d="M435.45,359.81s-1.21,11.49,8,14.52"/><path class="cls-5" d="M440.26,419.6s5.82-.11,6.73,2.53"/><path class="cls-5" d="M411.85,345.28s5.6,13.92,17.1,3.64"/><path class="cls-5" d="M431.07,387.51s-3.22-10.91,6.86-17.26"/><path class="cls-5" d="M417.38,374.59s-6.35-9.76-13.16-.91"/><path class="cls-5" d="M430.58,419.6s1.36-8.06,13.95-9.42"/><path class="cls-5" d="M416.62,406.21s3.57,9.53,16.42,9"/><path class="cls-5" d="M413.22,422.1s5,12.93-8.63,11.12"/><path class="cls-5" d="M428,433.29s3.76,3.16,2.53,6.3"/><path class="cls-5" d="M450.51,405.77s4.61.26,7.48-1.78"/><path class="cls-5" d="M450.29,393.33s3.48,1.06,9.91-5.82"/><path class="cls-5" d="M423.73,341.77s-.6-3.41,4.24-8.48"/><path class="cls-5" d="M441.88,355a6.12,6.12,0,0,1,5.52-4"/><path class="cls-5" d="M449,367.07s4.31-2.12,10,2.72"/><path class="cls-5" d="M388.7,345.28s-5.6,13.92-17.1,3.64"/><path class="cls-5" d="M365.1,359.81s1.21,11.49-8,14.52"/><path class="cls-5" d="M369.48,387.51s3.22-10.91-6.86-17.26"/><path class="cls-5" d="M382.8,374.33s6.35-9.76,13.16-.91"/><path class="cls-5" d="M370,419.6s-1.36-8.06-14-9.42"/><path class="cls-5" d="M383.93,406.21s-3.57,9.53-16.42,9"/><path class="cls-5" d="M387.34,422.1s-5,12.93,8.62,11.12"/><path class="cls-5" d="M371.93,433.39s-3.76,3.16-2.53,6.29"/><path class="cls-5" d="M359.77,419.21s-5.83-.11-6.73,2.54"/><path class="cls-5" d="M349.51,405.77S344.89,406,342,404"/><path class="cls-5" d="M349.52,393.17s-3.48,1.06-9.91-5.82"/><path class="cls-5" d="M376.82,341.77s.6-3.41-4.24-8.48"/><path class="cls-5" d="M358.67,355a6.12,6.12,0,0,0-5.52-4"/><path class="cls-5" d="M351.34,366.75s-4.32-2.12-10,2.72"/></g></svg>