<svg id="RELACS" xmlns="http://www.w3.org/2000/svg" viewBox="0 0 512 512"><defs><style>.cls-1,.cls-2,.cls-3,.cls-4{fill:#fff;}.cls-2,.cls-3,.cls-4{stroke:#fff;stroke-linecap:round;stroke-linejoin:round;}.cls-2{stroke-width:5.32px;}.cls-3{stroke-width:5.73px;}.cls-4{stroke-width:4.8px;}</style></defs><g id="RELACS-2" data-name="RELACS"><path class="cls-1" d="M508.62,153.77c2.92,20.41,14,113.56-48.1,190.81a228.79,228.79,0,0,1-75.34,60.51Q359.42,387.47,333,369.82q-37.77-25.24-75-49.31L232,328a52.14,52.14,0,0,1-6,10.9,50.05,50.05,0,0,1-16.28,14.57c-7.11,3.94-22.05,9.51-29.61,2.74a11.84,11.84,0,0,1-3.26-5c-2.31-7.12,3.14-14.29,12.74-27.23,3.32-4.48,9.5-12.85,18-24.57a127.57,127.57,0,0,1,50.34-15.32c31.59-2.54,44.4,9.28,69.3,10.38,32.78,1.43,56.88-17,94.68-46C444.79,231,478.24,201,508.62,153.77Z"/><rect class="cls-1" x="146.88" y="403.86" width="27.33" height="75.58" rx="13.67" transform="translate(323.58 0.91) rotate(40.28)"/><rect class="cls-1" x="176.24" y="435.53" width="27.33" height="60.59" rx="13.67" transform="translate(346.16 -12.34) rotate(40.28)"/><rect class="cls-1" x="205.49" y="465.7" width="27.33" height="45.59" rx="13.67" transform="translate(367.76 -25.88) rotate(40.28)"/><rect class="cls-1" x="111.14" y="402" width="27.33" height="51.85" rx="13.67" transform="translate(306.23 20.76) rotate(40.28)"/><path class="cls-1" d="M3.77,155.54C1.51,172.69-4.84,231,15.09,286.08,25.18,314,41.32,339.21,42.62,341.21c9,13.87,16.55,22.86,24.05,31.75C86.6,396.58,91,391,101.9,404.71c1.37,1.73,4.61,6,8.69,5.78s5-4.74,10-8c6.52-4.24,16.29-3.83,23.54.22,8.72,4.9,11.27,13.7,11.76,15.54,4.2-11.19,17-16.41,27.27-11.85,10.52,4.67,15.15,18.19,9.11,28.86a21.17,21.17,0,0,1,21.72,5.2c8,8.17,5.42,19.21,5.26,19.85.56-.07,12.84-1.45,20.12,7.9,5.75,7.38,5.85,18.21,0,26.42.6,1,12,19.2,29.05,18,1.24-.09,12.76-1.05,15.32-7.75,2.91-7.63-8.93-14.43-8.28-26.59.37-7,4.65-12.36,7.92-15.67-2,16.26,6.88,30.39,19,33.81,15.61,4.39,32.65-10.05,31.43-16.29-1.06-5.4-15.46-2.93-24-13.82-4.42-5.62-5.43-12.41-5.46-17.79a46.89,46.89,0,0,0,11.27,13c2.95,2.35,16.78,13.32,32.22,9.33,9.89-2.55,19.34-11,18.08-16.19-1-4.18-8.18-3.49-17-9.34a42.78,42.78,0,0,1-14.67-17.43c18.89,14.61,38.5,20.55,50,13.34,1-.6,7.6-4.77,8.25-11.37.85-8.69-9-16.5-14.27-19.81q-32.06-20.07-65.5-42.89-28.65-19.6-55-39.06l-20.17,6.56c-4.19,7.24-13.35,20.37-29.86,27.48-5.56,2.4-23.72,10.22-34.08,1.61a19,19,0,0,1-6.14-11.1c-.81-5.25.94-9.76,8.44-22,3.53-5.76,8.33-13.2,14.43-21.68a119.91,119.91,0,0,1-12.73-1.77c-25.07-4.91-43.42-17-63.42-32.94-32.35-25.75-58.15-52.86-80-79.25C20.9,179.1,10.68,165.26,3.77,155.54Z"/><ellipse class="cls-2" cx="239.23" cy="109.28" rx="40.23" ry="38.91"/><path class="cls-3" d="M314.32,282.4c-8.7-74.36-47.48-122.61-74.26-120.88-27.32,1.77-60.88,56.75-56.87,135.68a150.62,150.62,0,0,1,131.13-14.8Z"/><path class="cls-3" d="M86.62,233.11c-2.33-4.32-11.83-22-5-38.93,7.34-18.14,28.6-23.62,40-26.64,26.06-6.93,48.64.77,58.64,5a175.69,175.69,0,0,0-36.15,108.3c-7-4.32-16.79-10.73-28-19.29C100,249.17,91.83,242.79,86.62,233.11Z"/><path class="cls-3" d="M416.82,194.18c-15.43-25.2-50-27.39-62.24-28.12A112.24,112.24,0,0,0,308,173.41a186.66,186.66,0,0,1,44.19,106.91,242.65,242.65,0,0,0,42.11-23.23c24.49-16.92,27.58-25.87,28.42-28.64C427.47,212.74,419.07,197.86,416.82,194.18Z"/><ellipse class="cls-4" cx="133.2" cy="114.44" rx="36.3" ry="35.11"/><ellipse class="cls-4" cx="340.04" cy="114.44" rx="36.3" ry="35.11"/></g></svg>