<svg xmlns="http://www.w3.org/2000/svg" viewBox="0 0 512 512"><defs><style>.cls-1{fill:#fff;}</style></defs><g id="ADVOCACY"><ellipse class="cls-1" cx="251.05" cy="104.2" rx="47.77" ry="46.2"/><path class="cls-1" d="M315.71,264.08a17.49,17.49,0,0,0,17.49-17.92c-1.41-55.88-45-96-82.15-95.76-36.9.24-79.66,40.38-80.87,95.83a17.49,17.49,0,0,0,17.49,17.85Z"/><path class="cls-1" d="M67.6,286.47C59,271.15,52.07,244.26,63.36,235.6c4.55-3.49,11.68-3.72,16.92-1.27,11.09,5.2,11.64,21.37,15.65,36.81,3.56,13.65,11.42,32.88,31,54.23a128.75,128.75,0,0,1-20.43-6.8c-7.07-3-14.51-6.24-22.37-12.65A70.19,70.19,0,0,1,67.6,286.47Z"/><path class="cls-1" d="M116.76,305.43c-5.18-10.79-13.91-35.84-3.65-43.71,3.91-3,10-3.2,14.54-1.09,9.6,4.5,10.33,18.65,13.45,31.62,3.05,12.69,9.74,29.75,25.72,48.69a71.22,71.22,0,0,0-16.54-8.76c-6.79-2.51-9.54-2.31-13.62-3.89C125.71,324.06,120.36,312.94,116.76,305.43Z"/><path class="cls-1" d="M171.68,276.74c2.45-2.43,9.45.8,12.65,2.92,8.73,5.78,10.32,17.28,10.7,21.4a83.6,83.6,0,0,0-24.24-21.4A3.88,3.88,0,0,1,171.68,276.74Z"/><path class="cls-1" d="M234.15,381.37C218.92,331.59,182.22,274.31,159,279.66c-4.2,1-9,4.22-10.7,8.75-5.55,14.64,23,37.19,26.58,62.36.15,1.07,1.12,8,.39,8.12s-2-6-3.77-9.39c-6.75-12.95-23.8-15.64-41.18-21.15-19.07-6-30.7-9.72-41.46-16.64C57.5,291.53,56,258.3,28.47,248.2c-3.76-1.37-12.41-4.41-18.53-.22-5.13,3.5-6,10.37-6.33,13.18-1.94,16.93,10.63,32.07,16.48,39.27,11.62,14.28,18.83,26.42,27.27,37.71C68.06,365.81,65,363,68.6,367c29.58,32.8,60.22,28.31,73.88,56.33a55.13,55.13,0,0,1,5.3,24.33V502.7a8.46,8.46,0,0,0,8.46,8.46h79.31A8.46,8.46,0,0,0,244,502.7V447.65A227.83,227.83,0,0,0,234.15,381.37Z"/><path class="cls-1" d="M444.65,283.93c8.59-15.32,15.53-42.21,4.24-50.87-4.55-3.49-11.68-3.72-16.92-1.27-11.08,5.2-11.64,21.37-15.65,36.81-3.55,13.65-11.41,32.88-31,54.23a128.36,128.36,0,0,0,20.42-6.8c7.07-3,14.52-6.24,22.38-12.65A70.23,70.23,0,0,0,444.65,283.93Z"/><path class="cls-1" d="M395.5,302.89c5.18-10.79,13.9-35.84,3.64-43.71-3.91-3-10-3.2-14.54-1.09-9.6,4.5-10.32,18.65-13.44,31.62-3.06,12.69-9.74,29.75-25.72,48.69A70.52,70.52,0,0,1,362,329.64c6.8-2.51,9.54-2.31,13.62-3.89C386.55,321.52,391.89,310.4,395.5,302.89Z"/><path class="cls-1" d="M340.57,274.2c-2.45-2.43-9.44.8-12.64,2.92-8.73,5.78-10.33,17.28-10.7,21.4a83.25,83.25,0,0,1,24.24-21.4A3.85,3.85,0,0,0,340.57,274.2Z"/><path class="cls-1" d="M278.11,378.83c15.23-49.78,51.92-107.06,75.11-101.71,4.2,1,9,4.22,10.7,8.75,5.55,14.64-23,37.19-26.59,62.36-.15,1.07-1.12,7.95-.38,8.12s2-6,3.77-9.39c6.75-12.95,23.8-15.64,41.17-21.15,19.07-6,30.71-9.72,41.46-16.64,31.4-20.18,32.87-53.41,60.44-63.51,3.75-1.37,12.4-4.41,18.53-.22,5.12,3.5,6,10.37,6.33,13.18,1.93,16.93-10.63,32.07-16.49,39.27-11.61,14.28-18.82,26.42-27.26,37.71-20.71,27.67-17.6,24.81-21.24,28.85-29.58,32.8-60.23,28.31-73.88,56.33a55,55,0,0,0-5.3,24.33v55a8.47,8.47,0,0,1-8.46,8.47H276.71a8.46,8.46,0,0,1-8.46-8.47v-55A227.48,227.48,0,0,1,278.11,378.83Z"/></g></svg>