<?xml version="1.0" standalone="no"?>
<!DOCTYPE svg PUBLIC "-//W3C//DTD SVG 20010904//EN"
 "http://www.w3.org/TR/2001/REC-SVG-20010904/DTD/svg10.dtd">
<svg version="1.0" xmlns="http://www.w3.org/2000/svg"
 width="1600.000000pt" height="1600.000000pt" viewBox="0 0 1600.000000 1600.000000"
 preserveAspectRatio="xMidYMid meet">

<g transform="translate(0.000000,1600.000000) scale(0.100000,-0.100000)"
fill="#000000" stroke="none">
<path d="M8000 14696 c-206 -45 -350 -257 -311 -457 18 -90 52 -157 112 -217
154 -156 394 -160 554 -10 71 66 108 134 126 231 37 202 -107 408 -315 453
-73 16 -94 16 -166 0z"/>
<path d="M6730 14443 c-249 -55 -311 -69 -440 -104 -1705 -464 -3151 -1599
-4013 -3149 -117 -211 -333 -675 -377 -810 -5 -14 -23 -63 -40 -110 -93 -252
-194 -601 -245 -843 -3 -16 5 -17 83 -15 l87 3 13 55 c152 613 325 1072 589
1564 627 1168 1587 2099 2778 2694 348 173 680 304 1080 422 86 26 392 101
477 117 l98 18 0 88 c0 63 -3 87 -12 86 -7 -1 -42 -8 -78 -16z"/>
<path d="M9350 14337 l0 -85 133 -32 c1281 -308 2425 -995 3285 -1972 683
-776 1154 -1670 1407 -2668 l42 -165 87 -3 c86 -3 87 -3 81 20 -233 1050 -729
2044 -1421 2848 -257 298 -477 515 -779 768 -663 557 -1437 976 -2270 1230
-211 64 -411 116 -527 137 l-38 7 0 -85z"/>
<path d="M7265 13993 c-662 -81 -1332 -283 -1935 -584 -965 -482 -1750 -1177
-2345 -2074 -147 -222 -233 -372 -365 -637 -246 -495 -397 -933 -509 -1483
-32 -155 -71 -398 -65 -404 3 -4 55 -8 114 -9 126 -4 109 -23 135 148 25 161
73 391 112 535 19 72 37 139 40 150 12 48 109 339 143 430 358 938 913 1723
1690 2387 820 700 1902 1176 2978 1309 l102 12 0 114 0 113 -32 -1 c-18 -1
-46 -4 -63 -6z"/>
<path d="M8806 13875 c-4 -58 -5 -109 -2 -114 3 -5 27 -12 53 -16 1447 -211
2780 -989 3699 -2160 538 -685 928 -1527 1104 -2383 27 -133 79 -454 80 -489
0 -10 30 -13 115 -13 l116 0 -6 53 c-74 642 -283 1343 -579 1936 -432 867
-1022 1574 -1800 2160 -266 200 -541 369 -871 536 -579 293 -1106 466 -1751
575 -67 11 -128 20 -136 20 -12 0 -17 -21 -22 -105z"/>
<path d="M7545 13665 c-181 -16 -360 -39 -515 -67 -63 -11 -135 -24 -160 -28
-114 -20 -388 -92 -585 -154 -892 -278 -1752 -820 -2399 -1511 -776 -831
-1272 -1826 -1460 -2935 -13 -80 -29 -190 -36 -245 -6 -55 -16 -129 -21 -165
-6 -36 -13 -222 -16 -415 -5 -360 5 -563 42 -854 66 -506 205 -1011 410 -1491
468 -1096 1304 -2043 2340 -2649 603 -353 1212 -573 1940 -700 536 -94 1294
-94 1830 0 623 109 1105 266 1635 535 1088 550 1962 1430 2509 2523 393 785
591 1630 591 2521 0 898 -196 1731 -596 2530 -619 1238 -1669 2202 -2964 2722
-288 116 -719 245 -965 289 -27 4 -88 15 -135 24 -145 26 -357 53 -547 70
-221 18 -683 18 -898 0z m535 -516 c0 -68 -16 -76 -35 -18 -15 45 -69 62 -110
35 -60 -39 -46 -82 47 -143 90 -59 122 -103 115 -156 -12 -88 -64 -119 -190
-115 l-82 3 -3 59 c-3 66 15 75 34 16 9 -26 19 -36 44 -43 46 -12 95 7 110 43
18 43 5 65 -71 118 -87 62 -110 91 -111 140 -1 86 48 122 170 122 l82 0 0 -61z
m383 40 l177 -13 0 -30 c0 -40 -10 -76 -21 -76 -4 0 -13 18 -20 39 -10 35 -15
39 -49 43 -21 2 -48 1 -61 -2 -30 -7 -35 -36 -45 -242 -7 -145 -7 -148 14
-148 26 0 52 -10 52 -20 0 -5 -17 -6 -37 -4 -21 2 -77 6 -126 10 -48 3 -85 10
-81 15 3 5 20 9 38 9 l34 0 11 78 c6 42 14 129 17 193 l7 116 -33 6 c-18 4
-47 7 -65 7 -29 0 -35 -4 -45 -35 -15 -46 -45 -49 -36 -4 3 17 6 43 6 57 0 23
2 24 43 19 23 -3 122 -11 220 -18z m-743 0 c0 -5 -12 -14 -27 -20 -28 -9 -36
-20 -115 -169 -39 -72 -40 -77 -34 -146 8 -98 11 -104 57 -104 53 0 49 -16 -5
-23 -108 -15 -209 -20 -203 -10 4 6 21 13 38 17 l32 6 -5 84 c-6 82 -7 86 -54
148 -86 112 -124 148 -155 148 -15 0 -31 4 -34 10 -7 11 17 17 105 25 36 3 84
8 108 11 52 8 58 -12 7 -22 -19 -3 -37 -10 -40 -14 -5 -8 73 -118 100 -140 20
-17 24 -12 74 85 l41 80 -40 3 c-22 2 -40 7 -40 12 0 7 44 14 178 29 6 0 12
-4 12 -10z m1203 -60 l137 -23 0 -47 c0 -49 -15 -72 -31 -48 -5 8 -9 26 -9 40
0 25 -4 28 -62 38 -34 6 -63 9 -65 7 -7 -6 -36 -156 -32 -160 2 -3 27 -8 56
-11 46 -7 52 -5 58 14 3 11 13 21 21 21 13 0 14 -10 8 -57 -8 -67 -10 -73 -30
-73 -8 0 -14 10 -14 24 0 30 -6 35 -63 42 -51 7 -50 8 -63 -103 -7 -70 -2 -76
77 -88 44 -7 46 -6 59 24 7 17 19 31 27 31 13 0 14 -8 9 -42 -4 -24 -11 -47
-16 -51 -9 -10 -319 41 -334 55 -6 4 8 8 31 8 l41 0 16 68 c21 92 44 228 47
282 3 42 2 45 -29 54 -39 11 -43 31 -4 23 15 -3 89 -16 165 -28z m-1808 -67
c8 -32 9 -55 3 -58 -11 -7 -11 -7 -32 34 -13 25 -23 32 -47 32 -39 0 -86 -25
-94 -50 -12 -38 5 -58 73 -89 114 -52 136 -67 155 -102 34 -63 6 -138 -63
-174 -22 -11 -161 -38 -166 -32 -8 8 -31 106 -27 111 12 12 20 5 39 -30 18
-35 20 -36 67 -31 58 5 87 29 87 72 0 40 -16 54 -112 100 -96 45 -118 71 -118
137 0 66 36 102 118 118 31 6 62 13 67 15 27 10 39 -3 50 -53z m2147 4 c45
-13 59 -21 62 -39 26 -139 69 -334 75 -340 4 -4 65 51 135 123 70 71 133 130
139 130 25 0 127 -33 127 -41 0 -5 -18 -6 -40 -3 -48 8 -47 12 -88 -182 -39
-178 -43 -204 -34 -204 5 0 17 -7 28 -16 18 -15 17 -15 -16 -11 -55 8 -180 48
-180 58 0 6 15 7 33 4 33 -7 34 -6 50 47 10 29 26 93 36 142 l20 89 -127 -126
c-70 -70 -132 -127 -138 -127 -6 0 -26 74 -45 170 -18 93 -36 167 -41 162 -10
-10 -88 -219 -88 -236 0 -7 10 -21 23 -29 19 -14 20 -16 4 -16 -25 -1 -130 29
-141 40 -6 5 5 9 26 9 36 0 36 0 68 83 99 252 102 272 55 303 -26 17 -35 40
-12 31 6 -2 38 -12 69 -21z m-2821 -137 c-11 -9 -26 -19 -33 -21 -16 -6 -3
-49 71 -238 34 -85 61 -161 61 -167 0 -15 -22 -17 -35 -4 -14 13 -409 211
-413 207 -2 -2 23 -68 55 -147 l58 -144 43 3 c23 2 42 -1 42 -6 0 -9 -156 -72
-177 -72 -23 0 -14 19 17 35 17 9 30 19 30 23 0 14 -111 297 -126 320 -12 18
-24 22 -65 22 -28 0 -48 4 -45 8 3 5 37 21 76 36 l71 28 190 -96 c104 -54 189
-94 189 -89 0 4 -22 62 -49 128 l-48 120 -42 -2 c-64 -3 -46 16 50 52 87 34
119 35 80 4z m3976 -376 c-3 -43 -11 -149 -18 -235 l-13 -157 24 -26 c35 -38
9 -31 -96 26 -93 50 -116 72 -53 50 37 -13 48 -4 49 39 0 14 3 34 5 45 5 17
-8 27 -73 62 l-78 42 -43 -40 -43 -40 31 -23 c17 -13 28 -26 25 -29 -7 -7
-164 69 -164 79 0 4 15 3 34 0 33 -6 42 -1 203 138 111 96 176 145 192 145 23
1 24 0 18 -76z m-4624 53 c125 -45 184 -186 132 -314 -34 -82 -143 -152 -239
-152 -160 0 -267 140 -222 293 40 137 197 220 329 173z m-503 -218 c0 -7 -11
-24 -25 -38 l-24 -25 90 -135 c50 -74 101 -146 113 -158 22 -23 25 -23 54 -8
35 18 51 7 24 -16 -31 -28 -171 -118 -182 -118 -16 0 -12 12 16 41 l26 27 -64
102 c-93 149 -145 213 -169 206 -10 -3 -29 -9 -40 -13 -43 -13 -13 19 76 82
95 67 105 72 105 53z m5517 1 c15 -5 51 -26 80 -46 l51 -35 -26 -44 c-35 -58
-54 -58 -46 -1 6 39 3 46 -21 66 -43 33 -73 37 -97 13 -27 -27 -25 -63 7 -136
15 -33 29 -81 32 -107 5 -43 3 -50 -30 -85 -34 -37 -39 -39 -95 -39 -53 0 -66
4 -117 40 -32 22 -62 43 -68 47 -14 9 40 98 59 98 10 0 14 -6 10 -17 -19 -64
-18 -70 14 -97 42 -35 74 -42 105 -22 37 24 41 58 15 124 -40 102 -46 147 -27
187 26 55 92 78 154 54z m-5769 -214 c18 -19 32 -39 32 -45 0 -14 -22 -12 -44
5 -28 21 -31 20 -81 -26 l-45 -41 47 -62 c87 -113 185 -226 197 -226 7 0 21 7
32 15 24 18 34 19 34 2 0 -12 -170 -157 -184 -157 -13 0 -4 25 16 47 18 20 20
26 9 46 -13 25 -156 204 -198 249 l-25 26 -33 -19 c-57 -34 -70 -54 -58 -94 6
-19 7 -37 3 -40 -8 -5 -70 72 -70 86 0 4 21 23 48 42 26 19 99 78 162 130 63
53 118 96 121 96 3 1 20 -15 37 -34z m6085 -6 c12 -7 43 -30 69 -51 l48 -39
-33 -44 c-35 -48 -64 -61 -52 -22 18 59 17 66 -13 97 -51 51 -112 33 -112 -34
0 -17 9 -59 21 -91 49 -139 7 -220 -112 -218 -43 1 -58 7 -114 49 -35 27 -65
54 -65 60 0 6 14 30 31 54 36 49 54 43 37 -14 -12 -37 -11 -39 25 -72 38 -35
64 -41 98 -23 37 19 40 52 13 141 -32 104 -28 152 16 191 24 21 40 27 76 27
25 0 55 -5 67 -11z m-2931 -356 c21 -12 40 -23 43 -23 3 0 22 -11 43 -23 33
-22 309 -181 642 -372 69 -39 170 -98 225 -130 55 -32 204 -117 330 -190 127
-73 268 -155 315 -182 l85 -49 3 -1076 2 -1076 -342 -197 c-189 -109 -395
-228 -458 -265 -63 -36 -149 -86 -191 -110 l-76 -44 101 -153 c55 -84 104
-153 109 -153 4 0 67 34 139 76 72 42 146 84 162 94 33 18 95 54 448 258 125
73 230 132 233 132 6 0 334 -187 560 -320 116 -68 252 -146 580 -335 160 -92
335 -193 390 -225 55 -32 154 -89 220 -127 l120 -69 3 -1085 2 -1085 -132 -76
c-73 -42 -189 -109 -258 -149 -69 -40 -140 -81 -158 -91 -18 -10 -102 -58
-185 -107 -84 -48 -314 -182 -512 -296 -198 -114 -418 -242 -490 -283 -71 -41
-135 -75 -140 -75 -6 0 -53 25 -105 56 -52 30 -282 163 -510 295 -228 131
-476 274 -550 317 -209 121 -322 186 -356 205 -16 10 -91 53 -165 96 -74 42
-146 85 -161 93 l-28 16 3 1084 2 1083 201 117 c111 64 287 166 392 226 106
61 192 113 192 118 0 16 -202 302 -212 299 -10 -3 -373 -210 -574 -328 -50
-30 -99 -56 -107 -60 -10 -4 -49 13 -99 42 -334 193 -584 336 -589 337 -4 1
-55 -68 -113 -153 -83 -121 -103 -157 -93 -166 6 -6 102 -63 212 -126 110 -63
269 -154 353 -203 l152 -87 0 -1078 0 -1077 -247 -143 c-137 -79 -284 -164
-328 -190 -99 -57 -163 -95 -793 -459 l-502 -290 -313 180 c-380 220 -498 288
-602 349 -160 93 -516 298 -912 526 l-43 25 0 1078 0 1079 123 70 c67 39 190
109 272 157 83 48 238 138 345 200 107 62 239 138 292 169 54 31 141 81 193
111 52 30 138 80 190 110 52 30 139 81 192 112 54 31 135 78 180 104 l83 47
432 -250 c238 -137 470 -272 516 -299 46 -27 87 -49 91 -49 7 0 211 300 211
312 0 7 -8 12 -445 263 -159 92 -368 212 -463 267 l-172 100 2 1076 3 1076 85
49 c47 27 189 109 315 182 127 73 275 158 330 190 55 32 156 91 225 130 143
82 665 384 785 453 44 26 89 52 100 57 20 11 77 -16 197 -92z m3273 63 c56
-26 117 -88 140 -142 24 -59 19 -141 -13 -199 -39 -70 -93 -106 -173 -112 -88
-7 -138 9 -197 62 -90 81 -117 192 -71 291 52 109 196 156 314 100z m-6839
-212 c242 -100 259 -105 281 -89 23 18 33 19 33 2 0 -7 -36 -48 -80 -92 -63
-62 -80 -75 -80 -58 0 11 7 26 15 33 25 21 17 35 -30 58 l-44 21 -62 -59 -63
-59 13 -39 c22 -67 26 -69 60 -44 35 25 41 27 41 9 0 -18 -118 -133 -127 -123
-4 4 -2 16 5 26 7 11 12 28 12 37 0 10 -38 107 -85 216 -79 187 -90 227 -61
227 7 0 84 -30 172 -66z m-426 -216 c0 -7 -7 -22 -15 -32 -8 -11 -15 -25 -15
-31 0 -13 111 -93 234 -170 l79 -49 30 17 c28 17 29 17 25 0 -8 -30 -123 -174
-126 -159 -2 8 2 24 8 36 9 16 8 25 -1 36 -18 22 -208 148 -214 142 -3 -3 26
-74 65 -158 74 -162 81 -185 53 -176 -32 10 -325 57 -329 53 -5 -4 54 -59 138
-131 56 -47 59 -48 82 -32 41 26 37 4 -10 -59 -60 -80 -79 -85 -50 -14 7 16
-42 68 -164 175 -101 90 -118 95 -163 56 -9 -8 -20 -12 -24 -9 -8 9 10 42 46
86 l28 34 164 -27 c90 -15 176 -29 192 -31 15 -3 27 -2 27 0 0 8 -89 204 -126
278 l-35 69 41 54 c40 53 60 67 60 42z m7671 -13 c56 -20 69 -32 154 -134 l69
-83 -42 -40 c-49 -45 -72 -42 -43 6 l20 32 -35 52 c-72 107 -153 137 -244 89
-88 -46 -134 -141 -110 -227 17 -62 83 -127 138 -136 23 -4 42 -10 42 -14 0
-4 -24 -12 -52 -18 l-53 -10 -57 61 c-76 82 -98 128 -98 202 0 162 157 273
311 220z m355 -410 c42 -60 59 -93 53 -100 -7 -7 -18 0 -34 19 l-23 29 -39
-23 c-49 -31 -153 -102 -225 -158 l-58 -43 15 -29 c17 -33 19 -50 5 -50 -9 0
-140 181 -140 194 0 13 25 5 46 -15 l23 -22 73 46 c104 65 238 165 238 177 0
6 -7 25 -16 41 -14 29 -14 31 2 27 10 -1 46 -43 80 -93z m-8420 -340 c15 -9
29 -33 36 -60 10 -37 15 -44 32 -40 12 2 60 7 107 10 48 4 99 13 114 21 37 19
41 12 16 -29 -37 -59 -52 -68 -148 -77 -115 -11 -141 -18 -149 -42 -3 -11 -4
-21 -2 -22 1 -2 33 -20 70 -40 l67 -37 30 33 c47 51 37 17 -25 -88 -54 -93
-77 -115 -56 -56 10 28 8 30 -52 69 -33 23 -110 68 -171 102 l-110 61 -27 -32
c-44 -53 -32 -12 26 91 57 100 84 133 126 150 31 13 85 7 116 -14z m8663 -39
c10 -12 -15 -50 -129 -200 -133 -177 -140 -189 -134 -221 5 -30 4 -34 -10 -29
-9 3 -16 10 -16 14 0 5 -22 46 -50 91 -54 90 -56 118 -5 69 l32 -31 32 40 33
41 -39 71 c-21 39 -44 74 -51 76 -7 3 -33 2 -58 -2 -39 -6 -45 -9 -40 -26 3
-10 9 -28 12 -39 4 -13 2 -20 -7 -20 -17 0 -97 146 -86 156 4 4 18 -3 32 -16
l26 -24 207 31 c251 37 237 36 251 19z m158 -303 c4 -10 40 -92 81 -183 40
-91 76 -172 78 -180 4 -11 -10 -23 -42 -38 -58 -29 -78 -16 -34 21 l31 26 -25
50 c-14 27 -30 52 -35 56 -11 6 -162 -55 -274 -112 l-69 -34 7 -41 c12 -71
-16 -40 -64 70 -45 105 -47 140 -6 88 22 -27 24 -28 60 -16 38 12 197 81 268
116 34 16 37 21 31 48 -4 17 -13 45 -22 63 -13 28 -19 31 -53 30 -51 -3 -50
13 3 34 56 22 57 22 65 2z m-8951 -108 c203 -119 104 -465 -133 -465 -93 0
-177 61 -207 153 -33 99 -9 194 69 273 79 79 178 93 271 39z m9186 -476 c43
-121 42 -119 24 -119 -7 0 -19 14 -26 30 -7 17 -19 30 -27 30 -16 0 -258 -80
-317 -105 -37 -16 -38 -18 -33 -56 10 -74 -17 -41 -56 69 -20 59 -37 110 -37
115 0 18 21 4 35 -24 14 -27 20 -30 47 -24 47 11 195 60 272 91 l68 27 -6 39
c-12 74 18 36 56 -73z m-9555 -46 c3 -7 -12 -13 -39 -15 -42 -3 -43 -3 -59
-58 -21 -67 -18 -71 71 -98 l65 -20 11 22 c7 11 15 35 18 53 6 26 4 34 -13 43
-22 11 -30 45 -8 38 6 -3 36 -13 65 -22 31 -11 52 -23 52 -32 0 -10 -7 -13
-25 -8 -22 5 -27 1 -39 -27 -31 -76 -31 -76 21 -92 26 -8 62 -18 78 -22 17 -3
37 -8 45 -11 11 -3 20 7 29 31 11 31 31 48 31 27 0 -18 -71 -232 -77 -232 -3
0 -3 17 1 39 l6 38 -123 41 c-137 46 -228 72 -250 72 -8 0 -20 -13 -27 -30
-11 -25 -30 -42 -30 -25 0 7 92 308 96 316 6 10 97 -16 101 -28z m9534 -227
c101 -36 163 -131 163 -250 1 -77 -15 -118 -63 -169 -47 -52 -95 -69 -177 -65
-61 3 -79 8 -116 33 -67 48 -100 110 -106 200 -6 93 12 145 67 199 62 61 151
81 232 52z m-9739 -193 l3 -38 155 -31 c85 -16 177 -34 204 -40 27 -5 51 -14
53 -21 2 -6 -17 -24 -44 -39 -164 -93 -362 -219 -356 -225 12 -10 292 -61 302
-54 5 3 12 19 16 35 4 17 11 30 16 30 12 0 12 2 -8 -107 -17 -96 -33 -122 -33
-53 0 46 7 44 -217 86 -138 26 -142 26 -161 8 -11 -11 -23 -29 -26 -41 -10
-33 -29 -29 -22 5 3 15 10 52 16 82 l11 55 83 46 c120 68 268 160 263 165 -7
7 -210 44 -240 44 -23 0 -31 -6 -40 -30 -11 -29 -27 -41 -27 -19 0 29 34 179
41 179 4 0 9 -17 11 -37z m9972 -385 c3 -18 8 -54 11 -80 l6 -48 -120 -132
c-65 -73 -129 -145 -140 -160 l-21 -26 63 5 c34 3 96 11 137 17 69 10 75 13
78 36 10 85 27 56 37 -62 7 -92 -5 -121 -22 -51 -9 37 -9 37 -56 34 -26 -1
-123 -11 -215 -21 -92 -10 -169 -16 -172 -14 -7 7 1 16 172 205 86 95 155 175
154 177 -4 3 -272 -27 -303 -35 -19 -4 -23 -12 -23 -46 0 -27 -3 -38 -10 -31
-14 14 -26 199 -13 191 6 -4 13 -21 17 -38 l6 -31 77 7 c43 4 124 13 181 20
114 15 131 25 132 83 0 17 4 32 10 32 5 0 11 -15 14 -32z m-10084 -257 l0 -39
88 -13 c48 -7 139 -13 202 -13 l115 -1 3 25 c2 14 8 30 14 35 11 10 5 -140 -8
-212 -8 -41 -24 -33 -24 11 l0 33 -72 12 c-40 7 -130 15 -199 18 l-126 6 -7
-38 c-13 -68 -24 -22 -16 65 5 47 9 100 9 118 1 46 21 40 21 -7z m4970 -4914
c162 -60 249 -274 175 -432 -34 -71 -94 -131 -163 -163 -51 -24 -69 -27 -162
-27 -85 0 -114 4 -150 21 -67 32 -135 97 -167 162 -24 49 -28 69 -28 142 0 72
4 92 27 135 87 166 278 232 468 162z m1341 23 l70 0 -3 -82 c-2 -48 -7 -82
-13 -81 -5 1 -17 24 -25 53 -17 57 -30 65 -114 64 -42 0 -53 -5 -78 -32 -50
-57 -33 -99 69 -168 141 -94 183 -145 183 -220 0 -55 -36 -121 -83 -152 -39
-26 -47 -27 -163 -27 -67 0 -125 2 -127 5 -3 3 -7 41 -8 84 -5 96 11 111 37
34 9 -29 21 -56 27 -59 5 -4 31 -10 58 -13 74 -10 136 23 154 82 13 44 -14 79
-119 156 -68 49 -108 87 -123 114 -41 72 -24 157 40 206 34 26 108 48 135 40
8 -2 45 -4 83 -4z m-3358 -14 c6 -16 -20 -26 -69 -26 -28 0 -32 -4 -38 -37 -8
-51 -7 -438 2 -488 7 -39 8 -40 55 -45 26 -3 47 -9 47 -15 0 -6 -62 -10 -165
-10 -103 0 -165 4 -165 10 -1 6 20 12 44 15 25 3 48 9 52 13 10 10 18 391 10
479 l-7 76 -50 4 c-54 6 -65 11 -54 27 4 7 65 11 170 11 130 0 164 -3 168 -14z
m337 -44 c25 -31 112 -133 195 -226 l150 -169 8 49 c4 27 5 118 1 201 l-6 152
-37 7 c-59 10 -72 15 -68 27 2 8 44 12 137 12 93 0 135 -4 137 -12 4 -12 -9
-17 -69 -28 l-38 -6 0 -299 c0 -325 -3 -341 -49 -279 -33 43 -139 164 -305
349 l-131 144 -3 -228 c-1 -126 0 -231 3 -235 3 -3 27 -8 52 -11 26 -3 48 -11
51 -17 3 -10 -29 -13 -138 -13 -109 0 -141 3 -138 13 3 6 18 13 34 15 16 1 39
5 52 7 l22 5 0 258 -1 257 -23 17 c-13 10 -43 22 -66 27 -47 11 -55 15 -45 30
4 7 49 11 118 10 l112 0 45 -57z m1054 -13 c3 -39 4 -75 1 -80 -13 -20 -24 -7
-40 46 l-16 55 -82 0 c-45 0 -88 -4 -95 -9 -21 -13 -30 -210 -11 -222 17 -11
129 -12 146 -1 6 4 15 20 18 35 7 27 22 43 31 34 3 -3 6 -47 6 -97 0 -98 -13
-134 -32 -86 -5 15 -10 34 -10 41 0 15 -56 22 -129 16 l-44 -3 6 -126 c4 -86
10 -128 19 -133 7 -5 32 -9 56 -9 31 0 42 -4 42 -15 0 -13 -26 -15 -170 -15
-144 0 -170 2 -170 15 0 11 11 15 38 15 69 0 67 -7 70 261 2 133 1 257 -3 276
-5 30 -9 33 -40 33 -43 0 -65 9 -65 26 0 12 41 14 234 14 l233 0 7 -71z m1289
60 c50 -14 113 -71 128 -116 6 -19 9 -58 6 -86 -4 -44 -10 -56 -47 -90 l-42
-39 25 -27 c13 -14 52 -67 86 -118 61 -90 95 -123 126 -123 8 0 15 -7 15 -15
0 -23 -122 -21 -161 2 -16 10 -63 66 -104 124 -88 125 -91 128 -136 131 l-34
3 -3 -109 c-2 -71 1 -113 9 -122 7 -8 30 -14 55 -14 33 0 44 -4 44 -15 0 -13
-23 -15 -165 -13 -101 2 -165 7 -165 13 0 6 21 12 47 15 l48 5 6 75 c9 106 10
300 2 397 l-6 83 -36 6 c-61 10 -70 14 -64 30 4 11 35 14 167 14 88 0 178 -5
199 -11z m1250 -51 c197 -484 226 -545 265 -554 15 -3 32 -7 37 -9 6 -1 -57
-4 -138 -6 -82 -2 -151 -1 -154 4 -2 4 11 7 29 7 18 0 44 3 56 7 21 5 23 10
18 37 -3 17 -16 55 -27 84 l-21 52 -132 0 -131 0 -29 -80 c-16 -45 -26 -83
-23 -86 3 -4 30 -9 59 -13 86 -10 42 -16 -82 -11 -91 4 -106 7 -74 12 53 10
49 2 234 481 63 163 74 170 113 75z"/>
<path d="M10260 12481 c-36 -33 -63 -61 -60 -64 9 -8 104 -57 112 -57 9 0 20
97 16 142 l-3 37 -65 -58z"/>
<path d="M5624 12551 c-98 -44 -126 -156 -64 -256 70 -113 188 -135 270 -50
33 34 35 40 35 104 0 61 -3 73 -37 123 -25 39 -50 62 -80 77 -54 26 -71 26
-124 2z"/>
<path d="M7555 11354 c-253 -146 -500 -289 -550 -318 -49 -29 -201 -117 -337
-195 l-248 -143 0 -928 0 -928 248 -143 c136 -78 288 -166 337 -195 50 -29
263 -152 475 -274 212 -122 419 -242 461 -266 42 -24 78 -44 82 -44 5 0 375
213 732 420 135 79 657 380 777 449 l98 56 0 925 0 925 -98 57 c-53 31 -227
131 -387 223 -159 92 -335 193 -390 225 -344 200 -728 420 -733 420 -4 0 -214
-120 -467 -266z m558 -190 c157 -53 248 -257 187 -418 -29 -76 -94 -147 -169
-183 -79 -39 -190 -39 -273 -1 -66 31 -128 91 -160 157 -33 67 -33 215 0 283
76 154 245 220 415 162z m1094 -1181 c-3 -10 -5 -4 -5 12 0 17 2 24 5 18 2 -7
2 -21 0 -30z m-2060 -484 c104 -39 178 -130 204 -248 29 -136 -51 -289 -186
-352 -139 -67 -319 -19 -405 106 -123 178 -44 426 158 500 58 21 162 18 229
-6z m1987 -38 c63 -28 131 -94 163 -160 24 -48 28 -68 28 -141 0 -68 -5 -94
-23 -131 -36 -74 -87 -125 -158 -160 -126 -62 -275 -38 -374 61 -113 113 -128
281 -38 416 37 56 124 118 183 133 57 14 167 6 219 -18z"/>
<path d="M5945 8041 c-16 -10 -165 -96 -330 -191 -165 -95 -336 -194 -380
-220 -44 -26 -127 -74 -185 -107 -58 -34 -170 -99 -250 -145 -80 -47 -211
-122 -292 -169 l-148 -84 3 -944 2 -943 630 -365 c919 -532 973 -563 985 -563
12 0 54 24 985 563 l630 365 2 943 3 944 -148 84 c-134 77 -261 151 -537 311
-334 194 -934 540 -937 540 -2 0 -16 -9 -33 -19z m492 -783 c30 -34 34 -55 19
-93 -26 -62 -89 -74 -138 -25 -27 27 -36 30 -94 30 -62 0 -64 1 -64 25 0 24 3
25 61 25 55 0 64 3 89 30 36 39 96 42 127 8z m-787 -14 c0 -4 -5 -24 -12 -45
-11 -39 -12 -39 -63 -39 -57 0 -84 -19 -105 -74 -10 -26 -14 -28 -47 -23 -20
4 -40 10 -44 14 -11 12 16 81 43 110 45 50 78 63 156 63 39 0 72 -3 72 -6z
m1069 -79 c40 -20 57 -66 41 -105 -15 -37 -61 -63 -98 -56 -24 5 -34 -4 -96
-84 l-69 -90 -169 0 -168 0 0 25 0 25 154 0 154 0 65 82 c58 72 65 85 60 114
-6 39 16 80 50 94 32 13 44 12 76 -5z m-1457 -278 c29 -22 54 -54 77 -100 28
-58 33 -79 34 -140 0 -144 -78 -236 -201 -237 l-43 0 3 42 c3 41 5 43 40 49
77 12 108 52 108 137 0 75 -18 120 -66 168 l-44 44 17 35 c9 19 20 35 24 35 4
0 27 -15 51 -33z m1649 -26 c36 -36 37 -70 3 -110 -20 -25 -34 -31 -64 -31
-30 0 -44 6 -64 31 -14 17 -26 42 -26 56 0 36 51 83 90 83 22 0 41 -9 61 -29z
m-1227 -283 c-1 -65 -6 -84 -31 -130 -34 -59 -104 -113 -159 -124 -19 -3 -36
-5 -38 -3 -2 2 -7 23 -11 45 -6 39 -5 42 22 47 78 17 124 80 129 177 2 51 4
55 31 61 56 13 58 10 57 -73z m1005 18 c50 -49 70 -63 81 -56 29 19 76 11 104
-16 55 -55 18 -144 -59 -144 -44 0 -85 37 -85 77 0 20 -15 43 -57 85 l-57 58
-224 0 c-189 0 -224 2 -228 15 -4 8 -4 22 0 30 4 13 40 15 232 15 l226 0 67
-64z m-800 39 c41 -20 79 -70 87 -110 10 -56 -29 -124 -89 -154 -52 -25 -77
-23 -77 9 0 15 8 22 29 26 97 20 112 146 21 184 -21 9 -30 19 -30 36 0 28 18
31 59 9z m529 -218 c15 -14 22 -32 22 -56 0 -41 -5 -51 -40 -74 -36 -25 -68
-21 -101 12 -24 24 -40 31 -82 33 -48 3 -52 5 -52 28 0 23 4 25 54 28 43 3 58
8 73 27 31 39 84 40 126 2z m-1403 -150 l31 -52 124 -5 125 -5 0 -40 0 -40
-150 -3 -150 -2 -34 57 c-19 32 -41 68 -48 79 -13 20 -11 23 19 43 18 11 38
21 43 21 6 0 24 -24 40 -53z m1738 -26 l127 -73 0 -245 0 -245 30 -35 c32 -36
37 -61 18 -96 -17 -33 -39 -46 -75 -47 -81 0 -117 98 -54 151 l31 25 0 231 0
231 -107 61 c-148 83 -137 75 -122 99 7 11 15 19 19 18 3 -2 62 -36 133 -75z
m-663 -76 l0 -45 -290 0 -290 0 0 45 0 45 290 0 290 0 0 -45z m584 -94 c30
-26 38 -58 22 -96 -26 -62 -89 -74 -138 -25 l-30 30 -184 0 -184 0 0 25 0 25
185 0 c178 0 185 1 197 21 16 27 67 50 93 42 11 -3 28 -13 39 -22z m-804 -186
l0 -45 -327 0 -328 0 -51 -57 -51 -57 -31 23 c-18 12 -32 27 -32 32 0 6 26 41
58 79 l57 68 353 1 352 1 0 -45z m-361 -119 c83 -61 118 -132 108 -217 -10
-86 -70 -169 -133 -185 -31 -8 -30 -8 -38 42 -6 36 -5 41 18 52 31 14 52 46
60 95 9 51 -15 100 -70 139 -24 17 -44 35 -44 40 0 18 31 68 41 68 6 0 32 -15
58 -34z m1097 -10 c58 -49 20 -146 -57 -146 -21 0 -41 10 -62 31 l-30 31 -169
-4 -168 -3 0 30 0 31 165 -4 165 -4 35 31 c43 38 83 40 121 7z m-496 -198 l0
-43 -123 3 -122 4 -44 -61 c-25 -34 -49 -61 -55 -61 -5 0 -20 10 -32 21 l-23
21 56 74 55 73 131 4 c73 1 138 4 145 5 8 1 12 -12 12 -40z m330 -173 c35 -36
51 -45 78 -45 75 0 114 -103 56 -149 -33 -26 -84 -27 -115 -2 -19 16 -24 29
-24 68 0 40 -6 57 -29 86 l-30 37 -108 0 -108 0 0 25 0 25 118 0 118 0 44 -45z
m471 -84 c39 -39 39 -80 -1 -119 -28 -29 -30 -35 -30 -111 l0 -81 -247 0 -246
0 -116 88 c-63 48 -126 93 -139 100 -26 15 -26 39 1 56 13 8 20 8 25 0 4 -6
61 -52 127 -103 l119 -91 211 2 210 3 3 52 c3 48 0 55 -28 81 -43 37 -45 95
-5 129 37 32 80 30 116 -6z"/>
<path d="M9820 7944 c-223 -130 -483 -281 -550 -319 -81 -47 -744 -430 -822
-476 l-68 -40 0 -942 0 -942 98 -57 c224 -130 1479 -856 1499 -867 21 -10 72
17 535 285 282 164 538 312 568 329 30 17 147 85 260 150 113 66 222 128 242
139 l38 21 0 942 0 941 -307 178 c-170 97 -447 258 -618 357 -170 98 -357 206
-415 240 -58 33 -142 82 -186 109 -45 26 -88 48 -95 48 -8 0 -88 -44 -179 -96z
m740 -524 c0 -19 -7 -20 -210 -20 -203 0 -210 1 -210 20 0 19 7 20 210 20 203
0 210 -1 210 -20z m90 -104 c0 -17 -187 -25 -442 -18 -149 4 -188 8 -188 18 0
12 56 14 315 14 259 0 315 -2 315 -14z m510 -641 l0 -565 -145 0 c-138 0 -145
1 -145 20 0 19 7 20 125 20 l125 0 0 525 0 525 -617 2 c-579 3 -618 4 -621 21
-3 16 32 17 637 17 l641 0 0 -565z m-962 338 c-10 -2 -28 -2 -40 0 -13 2 -5 4
17 4 22 1 32 -1 23 -4z m170 0 c-10 -2 -26 -2 -35 0 -10 3 -2 5 17 5 19 0 27
-2 18 -5z m-281 -9 c-3 -3 -12 -4 -19 -1 -8 3 -5 6 6 6 11 1 17 -2 13 -5z m40
0 c-3 -3 -12 -4 -19 -1 -8 3 -5 6 6 6 11 1 17 -2 13 -5z m-147 -31 c-8 -3 -24
-10 -35 -15 -20 -9 -20 -9 -1 6 11 9 27 16 35 15 14 0 14 -1 1 -6z m-140 -320
l0 -86 39 -38 c77 -73 245 -114 426 -105 165 8 289 48 350 113 22 25 25 36 25
101 0 70 20 132 42 132 4 0 8 -263 8 -585 l0 -585 -38 -25 c-49 -32 -149 -71
-237 -93 -50 -12 -109 -16 -205 -16 -115 1 -148 5 -223 28 -48 14 -119 42
-157 61 l-70 35 0 608 0 607 20 -33 c16 -26 20 -50 20 -119z m358 -40 c-10 -2
-26 -2 -35 0 -10 3 -2 5 17 5 19 0 27 -2 18 -5z m165 0 c-7 -2 -19 -2 -25 0
-7 3 -2 5 12 5 14 0 19 -2 13 -5z m-1115 -435 c3 -16 -8 -18 -132 -18 l-136 0
0 -535 0 -535 625 0 c618 0 625 0 625 -20 0 -20 -7 -20 -645 -20 l-645 0 0
575 0 576 152 -3 c136 -3 153 -5 156 -20z m60 -195 c3 -89 12 -104 81 -130 60
-23 190 -23 246 1 60 26 75 44 75 90 0 23 5 48 10 56 6 10 10 -83 10 -273 l0
-288 -57 -27 c-52 -24 -70 -27 -163 -27 -93 0 -111 3 -162 27 l-58 27 0 295
c0 247 3 326 14 326 0 0 2 -35 4 -77z m762 -993 c0 -20 -7 -20 -345 -20 -338
0 -345 0 -345 20 0 20 7 20 345 20 338 0 345 0 345 -20z m-140 -100 c0 -19 -7
-20 -210 -20 -203 0 -210 1 -210 20 0 19 7 20 210 20 203 0 210 -1 210 -20z"/>
<path d="M9840 6410 c0 -117 11 -143 83 -184 89 -51 179 -70 337 -70 196 0
307 31 388 107 l32 31 0 105 c0 98 -1 103 -17 89 -89 -78 -341 -126 -527 -99
-102 15 -209 52 -257 91 l-39 31 0 -101z"/>
<path d="M9840 6152 c0 -87 1 -93 30 -125 111 -127 491 -158 706 -56 91 43 98
54 104 168 l5 96 -47 -31 c-194 -131 -620 -120 -775 19 l-23 20 0 -91z"/>
<path d="M9840 5906 c0 -75 3 -88 24 -113 32 -38 105 -77 186 -99 50 -14 100
-18 220 -18 140 0 163 3 235 27 80 26 136 59 160 94 14 19 26 193 14 193 -4 0
-12 -6 -18 -14 -18 -21 -109 -63 -181 -83 -51 -14 -101 -18 -225 -17 -145 1
-168 3 -240 27 -44 14 -101 40 -127 56 l-48 31 0 -84z"/>
<path d="M9840 5683 l0 -70 72 -33 c201 -93 427 -103 632 -29 134 48 138 52
140 132 0 37 0 67 -1 67 -1 0 -21 -13 -45 -29 -187 -126 -590 -118 -775 15
l-23 16 0 -69z"/>
<path d="M9310 5821 c0 -79 57 -110 200 -110 143 0 200 31 200 110 l0 48 -32
-19 c-50 -29 -155 -42 -235 -30 -38 6 -83 20 -100 30 l-33 19 0 -48z"/>
<path d="M9310 5705 c0 -20 4 -45 10 -55 28 -52 224 -75 323 -37 53 21 67 40
67 92 l0 35 -42 -22 c-38 -20 -58 -23 -158 -23 -100 0 -120 3 -157 23 l-43 22
0 -35z"/>
<path d="M9310 5586 c0 -29 6 -48 19 -60 46 -41 191 -59 286 -35 63 16 95 48
95 97 l0 39 -52 -26 c-47 -23 -65 -26 -153 -26 -90 0 -105 3 -147 27 l-48 27
0 -43z"/>
<path d="M9702 5514 c-1 -6 -21 -20 -44 -30 -33 -15 -66 -19 -153 -19 -95 0
-116 3 -152 23 l-43 22 0 -30 c0 -27 6 -34 48 -52 71 -32 199 -36 276 -9 74
26 78 30 73 72 -2 19 -5 29 -5 23z"/>
<path d="M11359 11836 c-125 -44 -198 -196 -137 -285 37 -55 71 -75 128 -75
111 0 222 136 199 243 -19 88 -111 145 -190 117z"/>
<path d="M4510 11615 c0 -14 62 -155 69 -155 16 0 95 90 86 99 -6 5 -35 18
-65 29 -30 11 -63 23 -72 27 -10 4 -18 4 -18 0z"/>
<path d="M3660 10613 c-55 -28 -47 -51 35 -100 39 -23 73 -43 77 -43 4 0 15
17 23 37 12 28 13 43 5 63 -21 50 -86 70 -140 43z"/>
<path d="M12240 10593 c-64 -7 -64 -8 -28 -73 18 -33 35 -60 38 -60 6 0 100
126 100 134 0 6 -49 6 -110 -1z"/>
<path d="M3475 10179 c-67 -16 -115 -76 -115 -145 0 -142 226 -239 335 -143
90 80 63 205 -57 262 -65 31 -110 38 -163 26z"/>
<path d="M12720 9398 c-115 -32 -174 -153 -117 -239 26 -39 97 -79 142 -79 41
0 123 28 158 54 39 29 70 98 62 138 -23 107 -125 160 -245 126z"/>
<path d="M7724 3691 c-92 -42 -154 -168 -140 -286 12 -101 58 -181 124 -214
115 -57 236 -20 298 92 27 48 29 60 29 157 0 88 -4 111 -22 145 -58 110 -181
155 -289 106z"/>
<path d="M8083 3440 c0 -41 2 -58 4 -37 2 20 2 54 0 75 -2 20 -4 3 -4 -38z"/>
<path d="M7503 3440 c0 -30 2 -43 4 -27 2 15 2 39 0 55 -2 15 -4 2 -4 -28z"/>
<path d="M9281 3364 c19 -22 36 -39 39 -37 2 2 -13 20 -35 41 l-39 37 35 -41z"/>
<path d="M8404 3435 c0 -154 2 -216 3 -137 2 79 2 205 0 280 -1 75 -3 11 -3
-143z"/>
<path d="M8480 3569 l0 -132 51 7 c28 4 62 14 74 22 25 16 45 61 45 101 0 63
-69 133 -131 133 l-39 0 0 -131z"/>
<path d="M9816 3681 c-6 -10 197 -508 214 -525 23 -23 14 8 -37 129 -30 72
-79 191 -110 265 -30 74 -56 136 -58 138 -2 2 -6 -1 -9 -7z"/>
<path d="M9797 3614 c-18 -30 -106 -258 -101 -263 8 -8 211 -8 218 0 4 3 -13
53 -37 110 -55 130 -73 164 -80 153z"/>
<path d="M1630 8476 c-315 -70 -420 -473 -180 -690 200 -180 517 -114 633 131
30 63 32 76 32 168 -1 87 -4 108 -28 158 -56 123 -152 203 -276 231 -81 19
-106 19 -181 2z"/>
<path d="M14162 8341 c-29 -11 -68 -29 -86 -40 -53 -33 -125 -117 -154 -179
-24 -50 -27 -69 -27 -162 0 -97 2 -110 31 -170 40 -83 111 -154 194 -194 60
-29 73 -31 170 -31 93 0 111 3 163 27 80 38 161 117 200 197 30 62 32 73 32
171 -1 95 -3 111 -30 165 -37 77 -123 163 -200 200 -80 38 -212 46 -293 16z"/>
<path d="M2040 7275 c0 -68 87 -535 135 -720 111 -434 251 -808 455 -1215 832
-1665 2413 -2864 4230 -3209 218 -41 380 -65 388 -56 4 3 7 55 7 113 l0 107
-185 31 c-592 99 -1087 257 -1615 515 -1141 557 -2085 1501 -2644 2644 -268
548 -456 1157 -531 1723 l-13 92 -113 0 -114 0 0 -25z"/>
<path d="M13720 7180 c-4 -8 -13 -51 -19 -95 -92 -603 -327 -1281 -640 -1847
-481 -870 -1188 -1611 -2036 -2133 -655 -404 -1422 -684 -2165 -790 -63 -9
-125 -18 -137 -21 -22 -4 -23 -8 -23 -118 l0 -114 43 5 c250 29 610 102 887
179 1487 415 2785 1424 3570 2774 354 610 621 1351 726 2020 8 52 17 107 20
122 l5 27 -111 3 c-92 2 -113 0 -120 -12z"/>
<path d="M1600 6700 c0 -51 125 -514 197 -730 425 -1275 1220 -2373 2312
-3193 518 -389 1181 -735 1808 -943 170 -56 459 -139 588 -167 132 -30 210
-46 245 -52 19 -4 43 -9 53 -11 15 -5 17 4 17 83 l0 88 -98 19 c-433 82 -962
256 -1398 458 -1477 685 -2635 1910 -3242 3428 -119 299 -224 642 -307 1008
-5 21 -10 22 -90 22 -49 0 -85 -4 -85 -10z"/>
<path d="M14226 6698 c-2 -7 -22 -92 -46 -188 -504 -2106 -2092 -3827 -4170
-4520 -176 -59 -385 -119 -542 -156 l-118 -28 0 -84 0 -85 41 7 c120 19 575
145 724 200 22 8 90 32 150 54 147 53 417 169 579 247 1143 556 2094 1422
2748 2500 154 254 248 437 413 800 79 175 214 555 279 785 35 125 116 456 116
474 0 3 -38 6 -85 6 -60 0 -87 -4 -89 -12z"/>
<path d="M7880 2122 c-254 -66 -379 -335 -264 -569 98 -201 366 -282 559 -169
142 84 223 255 196 412 -30 167 -145 289 -312 329 -79 18 -98 18 -179 -3z"/>
</g>
</svg>
